<mxfile host="65bd71144e">
    <diagram id="V6ZFGHlXoW5KtwPLWQ7k" name="Page-1">
        <mxGraphModel dx="832" dy="471" grid="1" gridSize="10" guides="1" tooltips="1" connect="1" arrows="1" fold="1" page="1" pageScale="1" pageWidth="850" pageHeight="1100" math="0" shadow="0">
            <root>
                <mxCell id="0"/>
                <mxCell id="1" parent="0"/>
                <mxCell id="2" value="" style="swimlane;childLayout=stackLayout;resizeParent=1;resizeParentMax=0;startSize=20;html=1;" parent="1" vertex="1">
                    <mxGeometry x="230.00000000000045" y="100" width="480" height="280" as="geometry"/>
                </mxCell>
                <mxCell id="3" value="Controller" style="swimlane;startSize=20;html=1;" parent="2" vertex="1">
                    <mxGeometry y="20" width="120" height="260" as="geometry"/>
                </mxCell>
                <mxCell id="4" value="" style="edgeStyle=none;html=1;" parent="3" source="5" target="7" edge="1">
                    <mxGeometry relative="1" as="geometry"/>
                </mxCell>
                <mxCell id="5" value="Initialize" style="rounded=0;whiteSpace=wrap;html=1;" parent="3" vertex="1">
                    <mxGeometry x="10" y="40" width="100" height="40" as="geometry"/>
                </mxCell>
                <mxCell id="6" value="" style="edgeStyle=orthogonalEdgeStyle;html=1;fontSize=15;" parent="3" source="7" target="8" edge="1">
                    <mxGeometry relative="1" as="geometry"/>
                </mxCell>
                <mxCell id="7" value="Register" style="rounded=0;whiteSpace=wrap;html=1;" parent="3" vertex="1">
                    <mxGeometry x="9.999999999999545" y="120" width="100" height="40" as="geometry"/>
                </mxCell>
                <mxCell id="8" value="ShowLogin" style="rounded=0;whiteSpace=wrap;html=1;" parent="3" vertex="1">
                    <mxGeometry x="9.999999999999545" y="200" width="100" height="40" as="geometry"/>
                </mxCell>
                <mxCell id="9" value="Business Logic" style="swimlane;startSize=20;html=1;" parent="2" vertex="1">
                    <mxGeometry x="120" y="20" width="240" height="260" as="geometry"/>
                </mxCell>
                <mxCell id="13" value="StoreUser" style="rounded=0;whiteSpace=wrap;html=1;" parent="9" vertex="1">
                    <mxGeometry x="129.99999999999955" y="120" width="100" height="40" as="geometry"/>
                </mxCell>
                <mxCell id="15" style="edgeStyle=orthogonalEdgeStyle;html=1;" parent="9" source="16" target="13" edge="1">
                    <mxGeometry relative="1" as="geometry"/>
                </mxCell>
                <mxCell id="16" value="ValidateInput" style="rounded=0;whiteSpace=wrap;html=1;" parent="9" vertex="1">
                    <mxGeometry x="129.99999999999955" y="60" width="100" height="40" as="geometry"/>
                </mxCell>
                <mxCell id="27" value="BuildForm" style="rounded=0;whiteSpace=wrap;html=1;" vertex="1" parent="9">
                    <mxGeometry x="9.999999999999545" y="40" width="100" height="40" as="geometry"/>
                </mxCell>
                <mxCell id="17" value="" style="edgeStyle=none;html=1;" parent="2" source="13" target="19" edge="1">
                    <mxGeometry relative="1" as="geometry"/>
                </mxCell>
                <mxCell id="18" value="Model" style="swimlane;startSize=20;html=1;" parent="2" vertex="1">
                    <mxGeometry x="360" y="20" width="120" height="260" as="geometry"/>
                </mxCell>
                <mxCell id="19" value="CreateUser" style="rounded=0;whiteSpace=wrap;html=1;" parent="18" vertex="1">
                    <mxGeometry x="9.999999999999545" y="120" width="100" height="40" as="geometry"/>
                </mxCell>
                <mxCell id="20" value="" style="edgeStyle=orthogonalEdgeStyle;html=1;" parent="2" source="7" target="16" edge="1">
                    <mxGeometry relative="1" as="geometry">
                        <mxPoint x="129.99999999999955" y="160" as="targetPoint"/>
                        <Array as="points">
                            <mxPoint x="230" y="160"/>
                            <mxPoint x="230" y="100"/>
                        </Array>
                    </mxGeometry>
                </mxCell>
                <mxCell id="28" value="" style="edgeStyle=none;html=1;" edge="1" parent="2" source="5" target="27">
                    <mxGeometry relative="1" as="geometry"/>
                </mxCell>
                <mxCell id="21" style="edgeStyle=none;html=1;" parent="1" source="22" target="5" edge="1">
                    <mxGeometry relative="1" as="geometry"/>
                </mxCell>
                <mxCell id="22" value="Visitor" style="shape=umlActor;verticalLabelPosition=bottom;verticalAlign=top;html=1;outlineConnect=0;" parent="1" vertex="1">
                    <mxGeometry x="130" y="150" width="30" height="60" as="geometry"/>
                </mxCell>
                <mxCell id="23" value="" style="ellipse;fillColor=strokeColor;fontSize=15;" parent="1" vertex="1">
                    <mxGeometry x="130" y="325" width="30" height="30" as="geometry"/>
                </mxCell>
                <mxCell id="24" style="edgeStyle=orthogonalEdgeStyle;html=1;fontSize=15;" parent="1" source="8" target="23" edge="1">
                    <mxGeometry relative="1" as="geometry"/>
                </mxCell>
                <mxCell id="25" style="edgeStyle=none;html=1;dashed=1;" edge="1" parent="1" source="26" target="5">
                    <mxGeometry relative="1" as="geometry">
                        <mxPoint x="224.16666666666697" y="160" as="targetPoint"/>
                    </mxGeometry>
                </mxCell>
                <mxCell id="26" value="Go to register page" style="shape=note;strokeWidth=2;fontSize=14;size=20;whiteSpace=wrap;html=1;fillColor=#fff2cc;strokeColor=#d6b656;fontColor=#666600;" vertex="1" parent="1">
                    <mxGeometry x="40" y="20" width="110.00000000000001" height="80" as="geometry"/>
                </mxCell>
            </root>
        </mxGraphModel>
    </diagram>
</mxfile>